{"title":"Garfield and Friends Complete + Bonus","uid":11009332,"size":30233126287,"categoryP":"video","categoryS":"tv_shows","magnet":"?xt=urn:btih:b87bca30f3ca41a4a9d6dfbfda942f9b564d2434&amp;dn=Garfield+and+Friends+Complete+%2B+Bonus&amp;tr=udp%3A%2F%2Ftracker.openbittorrent.com%3A80&amp;tr=udp%3A%2F%2Fopen.demonii.com%3A1337&amp;tr=udp%3A%2F%2Ftracker.coppersurfer.tk%3A6969&amp;tr=udp%3A%2F%2Fexodus.desync.com%3A6969","seeders":14,"leechers":28,"uploader":"horrorhound","files":-1,"time":1410314211,"description":"screens &lt;a href=&quot;\nhttp://image.bayimg.com/83900ebae78ef3f26ef3349f3ccee2d6a60bd6ee.jpg&quot; rel=&quot;nofollow&quot; target=&quot;_NEW&quot;&gt;\nhttp://image.bayimg.com/83900ebae78ef3f26ef3349f3ccee2d6a60bd6ee.jpg&lt;/a&gt; &lt;a href=&quot;\nhttp://image.bayimg.com/43e26c443e905e8ff68e19ffb3a5e225c5500480.jpg&quot; rel=&quot;nofollow&quot; target=&quot;_NEW&quot;&gt;\nhttp://image.bayimg.com/43e26c443e905e8ff68e19ffb3a5e225c5500480.jpg&lt;/a&gt;\n\nThis torrent contains all the Garfield and Friends seasons as well as all findable Garfield Specials all in mkv and avi formats and as top quality as you can get. The specials for the most part have srt files in the folder with them in case you need them. Not my rips, cheers to the original encoders.\n\nmore screens &lt;a href=&quot;\nhttp://image.bayimg.com/43cbf871e9427ecbdcab1fae5748f124b89295dd.jpg&quot; rel=&quot;nofollow&quot; target=&quot;_NEW&quot;&gt;\nhttp://image.bayimg.com/43cbf871e9427ecbdcab1fae5748f124b89295dd.jpg&lt;/a&gt; &lt;a href=&quot;\nhttp://image.bayimg.com/4bb8d5931aac4935b29c1f217e9dd7f0104f24d8.jpg&quot; rel=&quot;nofollow&quot; target=&quot;_NEW&quot;&gt;\nhttp://image.bayimg.com/4bb8d5931aac4935b29c1f217e9dd7f0104f24d8.jpg&lt;/a&gt;\n\n\n\nFormat                                   : Matroska\nFormat version                           : Version 2\nFile size                                : 212 MiB\nDuration                                 : 23mn 15s\nOverall bit rate mode                    : Variable\nOverall bit rate                         : 1 278 Kbps\nEncoded date                             : UTC 2010-09-19 05:50:15\nWriting application                      : mkvmerge v3.0.0 ('Hang up your Hang-Ups') built on Dec 12 2009 15:20:35\nWriting library                          : libebml v0.7.9 + libmatroska v0.8.1\n\nVideo\nID                                       : 1\nFormat                                   : MPEG-4 Visual\nFormat profile                           : Advanced Simple@L5\nFormat settings, BVOP                    : Yes\nFormat settings, QPel                    : No\nFormat settings, GMC                     : No warppoints\nFormat settings, Matrix                  : Default (H.263)\nCodec ID                                 : V_MS/VFW/FOURCC / XVID\nCodec ID/Hint                            : XviD\nDuration                                 : 23mn 15s\nBit rate                                 : 1 124 Kbps\nWidth                                    : 640 pixels\nHeight                                   : 480 pixels\nDisplay aspect ratio                     : 4:3\nFrame rate mode                          : Constant\nFrame rate                               : 23.976 fps\nColor space                              : YUV\nChroma subsampling                       : 4:2:0\nBit depth                                : 8 bits\nScan type                                : Progressive\nCompression mode                         : Lossy\nBits/(Pixel*Frame)                       : 0.153\nStream size                              : 187 MiB (88%)\nTitle                                    : Main\nWriting library                          : XviD 1.2.1 (UTC 2008-12-04)\nLanguage                                 : English\nDefault                                  : Yes\nForced                                   : No\n\nAudio\nID                                       : 2\nFormat                                   : Vorbis\nFormat settings, Floor                   : 1\nCodec ID                                 : A_VORBIS\nDuration                                 : 23mn 15s\nBit rate mode                            : Variable\nBit rate                                 : 128 Kbps\nChannel(s)                               : 2 channels\nSampling rate                            : 48.0 KHz\nCompression mode                         : Lossy\nStream size                              : 21.3 MiB (10%)\nTitle                                    : Main\nWriting library                          : libVorbis 1.0.1 (UTC 2003-09-09)\nLanguage                                 : English\nDefault                                  : Yes\nForced                                   : No\nWriting application                      : Made with BeSweet v1.5b30","torrent":{"xt":"urn:btih:b87bca30f3ca41a4a9d6dfbfda942f9b564d2434","amp;dn":"Garfield+and+Friends+Complete+%2B+Bonus","amp;tr":["udp%3A%2F%2Ftracker.openbittorrent.com%3A80","udp%3A%2F%2Fopen.demonii.com%3A1337","udp%3A%2F%2Ftracker.coppersurfer.tk%3A6969","udp%3A%2F%2Fexodus.desync.com%3A6969"],"infoHash":"b87bca30f3ca41a4a9d6dfbfda942f9b564d2434","infoHashBuffer":{"type":"Buffer","data":[184,123,202,48,243,202,65,164,169,214,223,191,218,148,47,155,86,77,36,52]},"announce":[],"urlList":[]}}